<svg width="512" height="512" xmlns="http://www.w3.org/2000/svg" preserveAspectRatio="xMidYMid meet">
 <defs>
  <clipPath id="__lottie_element_51">
   <rect id="svg_1" y="0" x="0" height="129" width="129"/>
  </clipPath>
  <linearGradient y2="0.5094" x2="1.49571" y1="0.50005" x1="0.78067" spreadMethod="pad" id="__lottie_element_55">
   <stop stop-opacity="0" stop-color="rgb(226,231,248)" offset="0%"/>
   <stop stop-opacity="0.5" stop-color="rgb(201,214,252)" offset="25%"/>
   <stop stop-color="rgb(177,197,255)" offset="50%"/>
   <stop stop-opacity="0.5" stop-color="rgb(177,197,255)" offset="75%"/>
   <stop stop-opacity="0" stop-color="rgb(177,197,255)" offset="100%"/>
  </linearGradient>
  <linearGradient y2="0.24553" x2="0.27942" y1="-0.00432" x1="-0.33226" spreadMethod="pad" id="__lottie_element_59">
   <stop stop-opacity="0" stop-color="rgb(226,231,248)" offset="0%"/>
   <stop stop-opacity="0.5" stop-color="rgb(201,214,252)" offset="25%"/>
   <stop stop-color="rgb(177,197,255)" offset="50%"/>
   <stop stop-opacity="0.5" stop-color="rgb(177,197,255)" offset="75%"/>
   <stop stop-opacity="0" stop-color="rgb(177,197,255)" offset="100%"/>
  </linearGradient>
  <linearGradient y2="0.69693" x2="0.9278" y1="0.02497" x1="-0.46152" spreadMethod="pad" id="__lottie_element_63">
   <stop stop-color="rgb(68,110,255)" offset="5%"/>
   <stop stop-color="rgb(57,130,255)" offset="28%"/>
   <stop stop-color="rgb(46,150,255)" offset="50%"/>
   <stop stop-color="rgb(111,173,255)" offset="72%"/>
   <stop stop-color="rgb(177,197,255)" offset="95%"/>
  </linearGradient>
  <linearGradient y2="0.315" x2="2.46594" y1="0.681" x1="-1.44103" spreadMethod="pad" id="__lottie_element_67">
   <stop stop-color="rgb(68,110,255)" offset="5%"/>
   <stop stop-color="rgb(57,130,255)" offset="28%"/>
   <stop stop-color="rgb(46,150,255)" offset="50%"/>
   <stop stop-color="rgb(111,173,255)" offset="72%"/>
   <stop stop-color="rgb(177,197,255)" offset="95%"/>
  </linearGradient>
  <linearGradient y2="0.315" x2="1.01073" y1="0.681" x1="-2.91215" spreadMethod="pad" id="__lottie_element_68">
   <stop stop-color="rgb(68,110,255)" offset="5%"/>
   <stop stop-color="rgb(57,130,255)" offset="28%"/>
   <stop stop-color="rgb(46,150,255)" offset="50%"/>
   <stop stop-color="rgb(111,173,255)" offset="72%"/>
   <stop stop-color="rgb(177,197,255)" offset="95%"/>
  </linearGradient>
  <linearGradient y2="0.257" x2="1.16674" y1="0.681" x1="-0.16035" spreadMethod="pad" id="__lottie_element_72">
   <stop stop-color="rgb(68,110,255)" offset="5%"/>
   <stop stop-color="rgb(57,130,255)" offset="28%"/>
   <stop stop-color="rgb(46,150,255)" offset="50%"/>
   <stop stop-color="rgb(111,173,255)" offset="72%"/>
   <stop stop-color="rgb(177,197,255)" offset="95%"/>
  </linearGradient>
  <linearGradient y2="0.49265" x2="65.174" y1="0.50547" x1="-63.554" spreadMethod="pad" id="__lottie_element_76">
   <stop stop-color="rgb(68,110,255)" offset="5%"/>
   <stop stop-color="rgb(57,130,255)" offset="28%"/>
   <stop stop-color="rgb(46,150,255)" offset="50%"/>
   <stop stop-color="rgb(111,173,255)" offset="72%"/>
   <stop stop-color="rgb(177,197,255)" offset="95%"/>
  </linearGradient>
  <linearGradient y2="0.49265" x2="65.174" y1="0.50547" x1="-63.554" spreadMethod="pad" id="__lottie_element_77">
   <stop stop-color="rgb(68,110,255)" offset="5%"/>
   <stop stop-color="rgb(57,130,255)" offset="28%"/>
   <stop stop-color="rgb(46,150,255)" offset="50%"/>
   <stop stop-color="rgb(111,173,255)" offset="72%"/>
   <stop stop-color="rgb(177,197,255)" offset="95%"/>
  </linearGradient>
  <linearGradient y2="0.257" x2="1.16674" y1="0.681" x1="-0.16035" spreadMethod="pad" id="__lottie_element_81">
   <stop stop-color="rgb(68,110,255)" offset="5%"/>
   <stop stop-color="rgb(57,130,255)" offset="28%"/>
   <stop stop-color="rgb(46,150,255)" offset="50%"/>
   <stop stop-color="rgb(111,173,255)" offset="72%"/>
   <stop stop-color="rgb(177,197,255)" offset="95%"/>
  </linearGradient>
  <linearGradient y2="0.5" x2="97.317" y1="0.5" x1="-32.649" spreadMethod="pad" id="__lottie_element_85">
   <stop stop-color="rgb(68,110,255)" offset="5%"/>
   <stop stop-color="rgb(57,130,255)" offset="28%"/>
   <stop stop-color="rgb(46,150,255)" offset="50%"/>
   <stop stop-color="rgb(111,173,255)" offset="72%"/>
   <stop stop-color="rgb(177,197,255)" offset="95%"/>
  </linearGradient>
  <linearGradient y2="0.49809" x2="33.611" y1="0.50187" x1="-95.762" spreadMethod="pad" id="__lottie_element_89">
   <stop stop-color="rgb(68,110,255)" offset="5%"/>
   <stop stop-color="rgb(57,130,255)" offset="28%"/>
   <stop stop-color="rgb(46,150,255)" offset="50%"/>
   <stop stop-color="rgb(111,173,255)" offset="72%"/>
   <stop stop-color="rgb(177,197,255)" offset="95%"/>
  </linearGradient>
  <linearGradient y2="0.5" x2="1.21066" y1="0.5" x1="-0.20934" spreadMethod="pad" id="__lottie_element_93">
   <stop stop-color="rgb(68,110,255)" offset="5%"/>
   <stop stop-color="rgb(57,130,255)" offset="28%"/>
   <stop stop-color="rgb(46,150,255)" offset="50%"/>
   <stop stop-color="rgb(111,173,255)" offset="72%"/>
   <stop stop-color="rgb(177,197,255)" offset="95%"/>
  </linearGradient>
  <linearGradient y2="0.48825" x2="4.69748" y1="0.50875" x1="-1.53811" spreadMethod="pad" id="__lottie_element_97">
   <stop stop-color="rgb(68,110,255)" offset="5%"/>
   <stop stop-color="rgb(57,130,255)" offset="28%"/>
   <stop stop-color="rgb(46,150,255)" offset="50%"/>
   <stop stop-color="rgb(111,173,255)" offset="72%"/>
   <stop stop-color="rgb(177,197,255)" offset="95%"/>
  </linearGradient>
  <linearGradient y2="0.48825" x2="2.58459" y1="0.50875" x1="-3.68108" spreadMethod="pad" id="__lottie_element_98">
   <stop stop-color="rgb(68,110,255)" offset="5%"/>
   <stop stop-color="rgb(57,130,255)" offset="28%"/>
   <stop stop-color="rgb(46,150,255)" offset="50%"/>
   <stop stop-color="rgb(111,173,255)" offset="72%"/>
   <stop stop-color="rgb(177,197,255)" offset="95%"/>
  </linearGradient>
 </defs>
 <g>
  <title>Layer 1</title>
  <rect rx="32" id="svg_42" height="512.02094" width="512" y="0.01046" x="-0.01042" fill="#003f7f"/>
  <g id="svg_3" display=" block" transform="matrix(3.08541, 0, 0, 3.13193, 150.862, 145.665)">
   <g id="svg_4" transform="matrix(1, 0, 0, 1, 10.588, 10.588)">
    <path id="svg_5" d="m9.881,11.338c0,0 0.707,-0.707 0.707,-0.707c0,0 -19.969,-19.969 -19.969,-19.969c0,0 -0.707,0.707 -0.707,0.707c0,0 19.969,19.969 19.969,19.969z" fill="url(#__lottie_element_97)"/>
   </g>
   <g id="svg_6" transform="matrix(1, 0, 0, 1, 54.639, 54.045)">
    <path id="svg_7" d="m-9.381,-9.33801c0,0 -0.707,0.707 -0.707,0.707c0,0 19.969,19.969 19.969,19.969c0,0 0.707,-0.707 0.707,-0.707c0,0 -19.969,-19.969 -19.969,-19.969z" fill="url(#__lottie_element_98)"/>
   </g>
  </g>
  <g id="svg_8" display=" block" transform="matrix(3.08541, 0, 0, 3.13193, 110.323, 103.584)">
   <g id="svg_9" transform="matrix(1, 0, 0, 1, 45.753, 45.753)">
    <path id="svg_10" d="m0.25,-44.50301c-25.131,0 -45.503,20.372 -45.503,45.503c0,25.131 20.372,45.503 45.503,45.503c25.131,0 45.503,-20.372 45.503,-45.503c0,-25.131 -20.372,-45.503 -45.503,-45.503zm0,90c-24.575,0 -44.497,-19.922 -44.497,-44.497c0,-24.575 19.922,-44.497 44.497,-44.497c24.575,0 44.497,19.922 44.497,44.497c0,24.575 -19.922,44.497 -44.497,44.497z" fill="url(#__lottie_element_93)"/>
   </g>
  </g>
  <g id="svg_11" display=" block" transform="matrix(3.08541, 0, 0, 3.13193, 347.909, 94.1979)">
   <g id="svg_12" transform="matrix(1, 0, 0, 1, 0.75, 48.75)">
    <path id="svg_13" d="m-0.24999,49.49999c0,0 1,0 1,0c0,0 0,-97 0,-97c0,0 -1,0 -1,0c0,0 0,97 0,97z" fill="url(#__lottie_element_89)"/>
   </g>
  </g>
  <g id="svg_14" display=" block" transform="matrix(3.08541, 0, 0, 3.13193, 150.443, 94.1979)">
   <g id="svg_15" transform="matrix(1, 0, 0, 1, 0.75, 48.75)">
    <path id="svg_16" d="m-0.25,49.49999c0,0 1,0 1,0c0,0 0,-97 0,-97c0,0 -1,0 -1,0c0,0 0,97 0,97z" fill="url(#__lottie_element_85)"/>
   </g>
  </g>
  <g id="svg_17" display=" block" transform="matrix(3.08541, 0, 0, 3.13193, 101.076, 344.752)">
   <g id="svg_18" transform="matrix(1, 0, 0, 1, 48.75, 0.75)">
    <path id="svg_19" d="m-48.25,1.49999c0,0 97,0 97,0c0,0 0,-1 0,-1c0,0 -97,0 -97,0c0,0 0,1 0,1z" fill="url(#__lottie_element_81)"/>
   </g>
  </g>
  <g id="svg_20" display=" block" transform="matrix(3.08541, 0, 0, 3.13193, 249.176, 44.087)">
   <g id="svg_21" transform="matrix(1, 0, 0, 1, 0.75, 112.716)">
    <path id="svg_22" d="m-0.25,17.53398c0,0 1,0 1,0c0,0 0,-33.068 0,-33.068c0,0 -1,0 -1,0c0,0 0,33.068 0,33.068z" fill="url(#__lottie_element_76)"/>
   </g>
   <g id="svg_23" transform="matrix(1, 0, 0, 1, 0.75, 16.784)">
    <path id="svg_24" d="m-0.25,17.534c0,0 1,0 1,0c0,0 0,-33.068 0,-33.068c0,0 -1,0 -1,0c0,0 0,33.068 0,33.068z" fill="url(#__lottie_element_77)"/>
   </g>
  </g>
  <g id="svg_25" display=" block" transform="matrix(3.08541, 0, 0, 3.13193, 101.076, 144.309)">
   <g id="svg_26" transform="matrix(1, 0, 0, 1, 48.75, 0.75)">
    <path id="svg_27" d="m-48.25,1.49999c0,0 97,0 97,0c0,0 0,-1 0,-1c0,0 -97,0 -97,0c0,0 0,1 0,1z" fill="url(#__lottie_element_72)"/>
   </g>
  </g>
  <g id="svg_28" display=" block" transform="matrix(3.08541, 0, 0, 3.13193, 51.7095, 244.531)">
   <g id="svg_29" transform="matrix(1, 0, 0, 1, 16.75, 0.75)">
    <path id="svg_30" d="m-16.25,1.49999c0,0 33,0 33,0c0,0 0,-1 0,-1c0,0 -33,0 -33,0c0,0 0,1 0,1z" fill="url(#__lottie_element_67)"/>
   </g>
   <g id="svg_31" transform="matrix(1, 0, 0, 1, 112.749, 0.75)">
    <path id="svg_32" d="m-16.24901,1.49999c0,0 32.998,0 32.998,0c0,0 0,-1 0,-1c0,0 -32.998,0 -32.998,0c0,0 0,1 0,1z" fill="url(#__lottie_element_68)"/>
   </g>
  </g>
  <g id="svg_33" display=" block" transform="matrix(3.08541, 0, 0, 3.13193, 112.915, 105.918)">
   <g id="svg_34" transform="matrix(1, 0, 0, 1, 44.857, 44.857)">
    <path id="svg_35" d="m44.857,0.99401c-2.279,-0.127 -4.393,-0.274 -5.999,-0.489c0,0 -0.001,-0.013 -0.001,-0.013c-2.062,-0.303 -4.079,-0.747 -6.051,-1.327c0,0 -0.276,-0.084 -0.538,-0.164c-0.237,-0.073 -0.462,-0.143 -0.462,-0.143c-1.267,-0.407 -2.516,-0.871 -3.745,-1.393c-5.536,-2.427 -10.352,-5.687 -14.447,-9.783c-4.095,-4.095 -7.355,-8.91 -9.782,-14.446c-0.522,-1.229 -0.986,-2.477 -1.393,-3.744c0,0 -0.307,-1 -0.307,-1c-0.581,-1.972 -1.023,-3.99 -1.326,-6.052c0,0 -0.056,-0.006 -0.056,-0.006c-0.218,-1.61 -0.367,-3.743 -0.494,-6.041c-0.129,2.236 -0.291,4.32 -0.514,6.114c0,0 0.032,-0.004 0.032,-0.004c-0.313,2.04 -0.761,4.037 -1.354,5.989c0,0 -0.317,1 -0.317,1c-0.419,1.267 -0.898,2.515 -1.437,3.744c-2.312,5.443 -5.466,10.189 -9.463,14.239c0,0 -0.71,0.705 -0.71,0.705c-3.985,3.863 -8.632,6.957 -13.942,9.285c-1.23,0.522 -2.478,0.986 -3.745,1.393c0,0 -1,0.307 -1,0.307c-1.973,0.58 -3.99,1.024 -6.051,1.327c0,0 -0.054,0.5 -0.054,0.5c0,0 0.054,-0.5 0.054,-0.5c-1.618,0.223 -3.783,0.372 -6.112,0.502c2.221,0.128 4.291,0.288 6.077,0.509c2.339,0.354 4.622,0.892 6.848,1.614c1.348,0.437 2.676,0.942 3.983,1.515c5.535,2.351 10.351,5.574 14.446,9.669c4.095,4.095 7.318,8.91 9.669,14.446c0.539,1.23 1.018,2.478 1.437,3.745c0,0 0.317,1 0.317,1c0.595,1.958 1.044,3.959 1.357,6.005c0,0 -0.035,-0.004 -0.035,-0.004c0.223,1.794 0.385,3.878 0.514,6.114c0.128,-2.306 0.277,-4.446 0.496,-6.058c0,0 0.054,-0.007 0.054,-0.007c0.303,-2.062 0.745,-4.077 1.326,-6.05c0,0 0.307,-1 0.307,-1c0.407,-1.267 0.871,-2.515 1.393,-3.745c2.328,-5.31 5.423,-9.958 9.286,-13.942c0,0 0.704,-0.711 0.704,-0.711c4.05,-3.997 8.796,-7.151 14.239,-9.462c1.229,-0.539 2.478,-1.018 3.745,-1.437c0,0 1,-0.319 1,-0.319c2.006,-0.609 4.059,-1.07 6.158,-1.384c0,0 -0.001,-0.008 -0.001,-0.008c1.745,-0.21 3.746,-0.366 5.894,-0.49zm-34.071,10.638c-4.416,4.416 -7.926,9.589 -10.536,15.483c-2.535,-5.895 -6.009,-11.068 -10.425,-15.483c-4.415,-4.415 -9.588,-7.89 -15.483,-10.426c5.895,-2.609 11.067,-6.119 15.483,-10.535c4.416,-4.415 7.89,-9.588 10.425,-15.483c2.61,5.895 6.12,11.067 10.536,15.483c4.416,4.416 9.589,7.926 15.483,10.535c-5.895,2.536 -11.068,6.011 -15.483,10.426z" fill="url(#__lottie_element_63)"/>
   </g>
  </g>
  <g id="svg_36" display=" block" transform="matrix(3.08542, 0, 0, 3.13193, 112.915, 105.918)">
   <g id="svg_37" transform="matrix(1, 0, 0, 1, 44.857, 44.857)">
    <path id="svg_38" d="m44.857,0.99401c-2.279,-0.127 -4.393,-0.274 -5.999,-0.489c0,0 -0.001,-0.013 -0.001,-0.013c-2.062,-0.303 -4.079,-0.747 -6.051,-1.327c0,0 -0.276,-0.084 -0.538,-0.164c-0.237,-0.073 -0.462,-0.143 -0.462,-0.143c-1.267,-0.407 -2.516,-0.871 -3.745,-1.393c-5.536,-2.427 -10.352,-5.687 -14.447,-9.783c-4.095,-4.095 -7.355,-8.91 -9.782,-14.446c-0.522,-1.229 -0.986,-2.477 -1.393,-3.744c0,0 -0.307,-1 -0.307,-1c-0.581,-1.972 -1.023,-3.99 -1.326,-6.052c0,0 -0.056,-0.006 -0.056,-0.006c-0.218,-1.61 -0.367,-3.743 -0.494,-6.041c-0.129,2.236 -0.291,4.32 -0.514,6.114c0,0 0.032,-0.004 0.032,-0.004c-0.313,2.04 -0.761,4.037 -1.354,5.989c0,0 -0.317,1 -0.317,1c-0.419,1.267 -0.898,2.515 -1.437,3.744c-2.312,5.443 -5.466,10.189 -9.463,14.239c0,0 -0.71,0.705 -0.71,0.705c-3.985,3.863 -8.632,6.957 -13.942,9.285c-1.23,0.522 -2.478,0.986 -3.745,1.393c0,0 -1,0.307 -1,0.307c-1.973,0.58 -3.99,1.024 -6.051,1.327c0,0 -0.054,0.5 -0.054,0.5c0,0 0.054,-0.5 0.054,-0.5c-1.618,0.223 -3.783,0.372 -6.112,0.502c2.221,0.128 4.291,0.288 6.077,0.509c2.339,0.354 4.622,0.892 6.848,1.614c1.348,0.437 2.676,0.942 3.983,1.515c5.535,2.351 10.351,5.574 14.446,9.669c4.095,4.095 7.318,8.91 9.669,14.446c0.539,1.23 1.018,2.478 1.437,3.745c0,0 0.317,1 0.317,1c0.595,1.958 1.044,3.959 1.357,6.005c0,0 -0.035,-0.004 -0.035,-0.004c0.223,1.794 0.385,3.878 0.514,6.114c0.128,-2.306 0.277,-4.446 0.496,-6.058c0,0 0.054,-0.007 0.054,-0.007c0.303,-2.062 0.745,-4.077 1.326,-6.05c0,0 0.307,-1 0.307,-1c0.407,-1.267 0.871,-2.515 1.393,-3.745c2.328,-5.31 5.423,-9.958 9.286,-13.942c0,0 0.704,-0.711 0.704,-0.711c4.05,-3.997 8.796,-7.151 14.239,-9.462c1.229,-0.539 2.478,-1.018 3.745,-1.437c0,0 1,-0.319 1,-0.319c2.006,-0.609 4.059,-1.07 6.158,-1.384c0,0 -0.001,-0.008 -0.001,-0.008c1.745,-0.21 3.746,-0.366 5.894,-0.49zm-34.071,10.638c-4.416,4.416 -7.926,9.589 -10.536,15.483c-2.535,-5.895 -6.009,-11.068 -10.425,-15.483c-4.415,-4.415 -9.588,-7.89 -15.483,-10.426c5.895,-2.609 11.067,-6.119 15.483,-10.535c4.416,-4.415 7.89,-9.588 10.425,-15.483c2.61,5.895 6.12,11.067 10.536,15.483c4.416,4.416 9.589,7.926 15.483,10.535c-5.895,2.536 -11.068,6.011 -15.483,10.426z" fill="url(#__lottie_element_59)"/>
   </g>
  </g>
  <g id="svg_39" display=" block" transform="matrix(3.08541, 0, 0, 3.13193, 110.323, 103.584)">
   <g id="svg_40" transform="matrix(1, 0, 0, 1, 45.753, 45.753)">
    <path id="svg_41" d="m0.25,-44.50301c-25.131,0 -45.503,20.372 -45.503,45.503c0,25.131 20.372,45.503 45.503,45.503c25.131,0 45.503,-20.372 45.503,-45.503c0,-25.131 -20.372,-45.503 -45.503,-45.503zm0,90c-24.575,0 -44.497,-19.922 -44.497,-44.497c0,-24.575 19.922,-44.497 44.497,-44.497c24.575,0 44.497,19.922 44.497,44.497c0,24.575 -19.922,44.497 -44.497,44.497z" fill="url(#__lottie_element_55)"/>
   </g>
  </g>
 </g>
</svg>