<svg width="512" height="512" xmlns="http://www.w3.org/2000/svg" preserveAspectRatio="xMidYMid" version="1.1">
 <title>Meta</title>
 <defs>
  <linearGradient id="linearGradient-1" y2="58.6936324%" x2="89.143574%" y1="55.9337491%" x1="13.8784354%">
   <stop offset="0%" stop-color="#0064E1"/>
   <stop offset="40%" stop-color="#0064E1"/>
   <stop offset="83%" stop-color="#0073EE"/>
   <stop offset="100%" stop-color="#0082FB"/>
  </linearGradient>
  <linearGradient id="linearGradient-2" y2="39.3067715%" x2="54.3150272%" y1="82.782443%" x1="54.3150272%">
   <stop offset="0%" stop-color="#0082FB"/>
   <stop offset="100%" stop-color="#0064E0"/>
  </linearGradient>
 </defs>
 <g>
  <title>Layer 1</title>
  <rect rx="32" id="svg_5" height="512" width="512" y="0" x="0" fill="#c6c6ff"/>
  <g id="svg_1">
   <path id="svg_2" fill="#0081FB" d="m133.30783,289.15475c0,11.95139 2.62321,21.12718 6.05189,26.67837c4.49538,7.27097 11.20034,10.35133 18.03592,10.35133c8.8166,0 16.88216,-2.18782 32.42548,-23.68506c12.45208,-17.23047 27.12464,-41.41623 36.99704,-56.5786l16.71888,-25.68785c11.61396,-17.84 25.05654,-37.6719 40.46926,-51.11449c12.58269,-10.97176 26.15589,-17.06718 39.81618,-17.06718c22.93402,0 44.77959,13.2902 61.49846,38.21613c18.29716,27.2988 27.17906,61.68351 27.17906,97.16759c0,21.09452 -4.15795,36.59431 -11.233,48.83958c-6.83558,11.84254 -20.15843,23.6742 -42.57001,23.6742l0,-33.7643c19.1897,0 23.97897,-17.63319 23.97897,-37.8134c0,-28.75733 -6.70497,-60.67124 -21.47549,-83.47464c-10.48194,-16.17464 -24.06603,-26.05793 -39.01071,-26.05793c-16.16376,0 -29.17095,12.19085 -43.78909,33.92756c-7.77166,11.54865 -15.75014,25.62255 -24.70823,41.5033l-9.86152,17.46992c-19.81012,35.12487 -24.82797,43.12512 -34.73304,56.32824c-17.36107,23.11907 -32.18601,31.88125 -51.70226,31.88125c-23.15172,0 -37.79162,-10.0248 -46.85857,-25.13274c-7.40158,-12.31058 -11.03706,-28.46345 -11.03706,-46.86945l33.80783,1.20819z"/>
   <path id="svg_3" fill="url(#linearGradient-1)" d="m126.1566,192.65114c15.49978,-23.89189 37.86782,-40.59988 63.52302,-40.59988c14.8576,0 29.62812,4.39742 45.0517,16.991c16.87126,13.76913 34.85277,36.44192 57.2861,73.80904l8.04378,13.40993c19.41828,32.34928 30.46623,48.99197 36.93174,56.83982c8.3159,10.07922 14.1392,13.08339 21.70406,13.08339c19.1897,0 23.97897,-17.63319 23.97897,-37.8134l29.82403,-0.93608c0,21.09452 -4.15795,36.59431 -11.233,48.83958c-6.83558,11.84254 -20.15843,23.6742 -42.57001,23.6742c-13.93239,0 -26.27563,-3.02594 -39.92502,-15.90253c-10.49284,-9.88329 -22.75988,-27.44029 -32.1969,-43.22309l-28.0716,-46.89121c-14.08478,-23.5327 -27.00491,-41.0788 -34.48267,-49.02463c-8.04379,-8.54447 -18.38424,-18.86315 -34.88543,-18.86315c-13.3555,0 -24.69735,9.37171 -34.18879,23.70684l-28.78998,-17.09984z"/>
   <path id="svg_4" fill="url(#linearGradient-2)" d="m189.13538,186.04414c-13.3555,0 -24.69735,9.37171 -34.18879,23.70684c-13.42082,20.25639 -21.63875,50.42874 -21.63875,79.40377c0,11.95139 2.62321,21.12718 6.05189,26.67837l-28.82265,18.98289c-7.40158,-12.31058 -11.03706,-28.46345 -11.03706,-46.86945c0,-33.47041 9.18667,-68.35583 26.6566,-95.29542c15.49978,-23.89189 37.86782,-40.59988 63.52302,-40.59988l-0.54424,33.99288z"/>
  </g>
 </g>
</svg>