<svg width="512" height="512" xmlns="http://www.w3.org/2000/svg" preserveAspectRatio="xMidYMid" version="1.1">
 <title>Stability AI</title>
 <defs>
  <linearGradient id="linearGradient-1" y2="100%" x2="50%" y1="0%" x1="50%">
   <stop offset="0%" stop-color="#9D39FF"/>
   <stop offset="100%" stop-color="#A380FF"/>
  </linearGradient>
 </defs>
 <g>
  <title>Layer 1</title>
  <rect rx="32" id="svg_4" height="512" width="512" y="0" x="0" fill="#ffb7ff"/>
  <g id="svg_1">
   <path id="svg_2" fill="url(#linearGradient-1)" d="m177.1869,406.62357c70.15758,0 115.78852,-37.15807 115.78852,-93.05597c0,-43.3494 -27.75363,-70.89503 -77.37729,-82.30278l-31.86042,-9.55636c-27.94894,-6.27426 -44.26242,-13.80838 -40.41879,-33.05557c3.19756,-16.01194 12.76368,-25.05123 35.00876,-25.05123c70.71742,0 96.91853,25.05123 96.91853,25.05123l0,-60.25238c0,0 -25.50917,-23.02408 -96.91853,-23.02408c-67.30563,0 -103.82767,34.63219 -103.82767,88.24853c0,43.3494 25.30981,68.55927 76.64461,80.53739c3.59276,0.89834 5.42905,1.35985 5.50884,1.38455c7.80843,2.41657 18.34503,5.60946 31.6098,9.57865c26.2378,6.27426 32.98513,12.93345 32.98513,32.89699c0,18.25236 -18.96445,28.6275 -44.06148,28.6275c-72.29705,0 -102.6869,-36.57389 -102.6869,-36.57389l0,66.75475c0,0 19.00428,29.79269 102.6869,29.79269z"/>
   <path id="svg_3" fill="#E80000" d="m394.16987,402.10966c24.83557,0 43.33013,-17.96615 43.33013,-42.27329c0,-24.83557 -17.96615,-42.27329 -43.33013,-42.27329c-24.83555,0 -42.80171,17.43773 -42.80171,42.27329c0,24.83555 17.96616,42.27329 42.80171,42.27329z"/>
  </g>
 </g>
</svg>